# Blender v2.76 (sub 0) OBJ File: ''
# www.blender.org
mtllib sphere.mtl
o Sphere
v -0.195090 0.980785 0.000000
v -0.382683 0.923880 0.000000
v -0.555570 0.831470 0.000000
v -0.707107 0.707107 0.000000
v -0.831470 0.555570 0.000000
v -0.923880 0.382683 0.000000
v -0.980785 0.195090 0.000000
v -1.000000 0.000000 0.000000
v -0.980785 -0.195090 0.000000
v -0.923880 -0.382683 0.000000
v -0.831470 -0.555570 0.000000
v -0.707107 -0.707107 0.000000
v -0.555570 -0.831470 0.000000
v -0.382683 -0.923880 0.000000
v -0.195090 -0.980785 0.000000
v -0.180240 0.980785 -0.074658
v -0.353553 0.923880 -0.146447
v -0.513280 0.831470 -0.212608
v -0.653281 0.707107 -0.270598
v -0.768178 0.555570 -0.318190
v -0.853553 0.382683 -0.353554
v -0.906127 0.195090 -0.375330
v -0.923880 0.000000 -0.382684
v -0.906127 -0.195090 -0.375330
v -0.853553 -0.382683 -0.353554
v -0.768178 -0.555570 -0.318190
v -0.653281 -0.707107 -0.270598
v -0.513280 -0.831470 -0.212608
v -0.353553 -0.923880 -0.146447
v -0.180240 -0.980785 -0.074658
v 0.000000 -1.000000 0.000000
v -0.137950 0.980785 -0.137950
v -0.270598 0.923880 -0.270598
v -0.392847 0.831470 -0.392848
v -0.500000 0.707107 -0.500000
v -0.587938 0.555570 -0.587938
v -0.653281 0.382683 -0.653282
v -0.693520 0.195090 -0.693520
v -0.707107 0.000000 -0.707107
v -0.693520 -0.195090 -0.693520
v -0.653281 -0.382683 -0.653282
v -0.587938 -0.555570 -0.587938
v -0.500000 -0.707107 -0.500000
v -0.392847 -0.831470 -0.392848
v -0.270598 -0.923880 -0.270598
v -0.137949 -0.980785 -0.137950
v -0.074658 0.980785 -0.180240
v -0.146446 0.923880 -0.353554
v -0.212607 0.831470 -0.513280
v -0.270598 0.707107 -0.653282
v -0.318189 0.555570 -0.768178
v -0.353553 0.382683 -0.853554
v -0.375330 0.195090 -0.906128
v -0.382683 0.000000 -0.923880
v -0.375330 -0.195090 -0.906128
v -0.353553 -0.382683 -0.853554
v -0.318189 -0.555570 -0.768178
v -0.270598 -0.707107 -0.653282
v -0.212607 -0.831470 -0.513280
v -0.146446 -0.923880 -0.353554
v -0.074658 -0.980785 -0.180240
v 0.000000 0.980785 -0.195091
v 0.000000 0.923880 -0.382684
v 0.000000 0.831470 -0.555571
v 0.000000 0.707107 -0.707107
v 0.000000 0.555570 -0.831470
v 0.000000 0.382683 -0.923880
v 0.000000 0.195090 -0.980786
v 0.000000 0.000000 -1.000000
v 0.000000 -0.195090 -0.980786
v 0.000000 -0.382683 -0.923880
v 0.000000 -0.555570 -0.831470
v 0.000000 -0.707107 -0.707107
v 0.000000 -0.831470 -0.555570
v 0.000000 -0.923880 -0.382684
v 0.000000 -0.980785 -0.195090
v 0.074658 0.980785 -0.180240
v 0.146447 0.923880 -0.353554
v 0.212608 0.831470 -0.513280
v 0.270599 0.707107 -0.653282
v 0.318190 0.555570 -0.768178
v 0.353554 0.382683 -0.853554
v 0.375331 0.195090 -0.906128
v 0.382684 0.000000 -0.923880
v 0.375331 -0.195090 -0.906128
v 0.353554 -0.382683 -0.853554
v 0.318190 -0.555570 -0.768178
v 0.270599 -0.707107 -0.653282
v 0.212608 -0.831470 -0.513280
v 0.146447 -0.923880 -0.353553
v 0.074658 -0.980785 -0.180240
v 0.137950 0.980785 -0.137950
v 0.270599 0.923880 -0.270598
v 0.392848 0.831470 -0.392848
v 0.500000 0.707107 -0.500000
v 0.587938 0.555570 -0.587938
v 0.653282 0.382683 -0.653282
v 0.693520 0.195090 -0.693520
v 0.707107 0.000000 -0.707107
v 0.693520 -0.195090 -0.693520
v 0.653282 -0.382683 -0.653282
v 0.587938 -0.555570 -0.587938
v 0.500000 -0.707107 -0.500000
v 0.392848 -0.831470 -0.392848
v 0.270599 -0.923880 -0.270598
v 0.137950 -0.980785 -0.137950
v 0.180241 0.980785 -0.074658
v 0.353554 0.923880 -0.146447
v 0.513281 0.831470 -0.212608
v 0.653282 0.707107 -0.270598
v 0.768178 0.555570 -0.318190
v 0.853554 0.382683 -0.353553
v 0.906128 0.195090 -0.375330
v 0.923880 0.000000 -0.382683
v 0.906128 -0.195090 -0.375330
v 0.853554 -0.382683 -0.353553
v 0.768178 -0.555570 -0.318190
v 0.653282 -0.707107 -0.270598
v 0.513281 -0.831470 -0.212607
v 0.353554 -0.923880 -0.146447
v 0.180240 -0.980785 -0.074658
v 0.195091 0.980785 0.000000
v 0.382684 0.923880 0.000000
v 0.555571 0.831470 0.000000
v 0.707107 0.707107 0.000000
v 0.831470 0.555570 0.000000
v 0.923880 0.382683 0.000000
v 0.980786 0.195090 0.000000
v 1.000000 0.000000 0.000000
v 0.980786 -0.195090 0.000000
v 0.923880 -0.382683 0.000000
v 0.831470 -0.555570 0.000000
v 0.707107 -0.707107 0.000000
v 0.555571 -0.831470 0.000000
v 0.382684 -0.923880 0.000000
v 0.195091 -0.980785 0.000000
v 0.180241 0.980785 0.074658
v 0.353554 0.923880 0.146447
v 0.513280 0.831470 0.212608
v 0.653282 0.707107 0.270598
v 0.768178 0.555570 0.318190
v 0.853554 0.382683 0.353554
v 0.906128 0.195090 0.375330
v 0.923880 0.000000 0.382684
v 0.906128 -0.195090 0.375330
v 0.853554 -0.382683 0.353554
v 0.768178 -0.555570 0.318190
v 0.653282 -0.707107 0.270598
v 0.513280 -0.831470 0.212608
v 0.353554 -0.923880 0.146447
v 0.180240 -0.980785 0.074658
v 0.137950 0.980785 0.137950
v 0.270598 0.923880 0.270598
v 0.392848 0.831470 0.392848
v 0.500000 0.707107 0.500000
v 0.587938 0.555570 0.587938
v 0.653282 0.382683 0.653282
v 0.693520 0.195090 0.693520
v 0.707107 0.000000 0.707107
v 0.693520 -0.195090 0.693520
v 0.653282 -0.382683 0.653282
v 0.587938 -0.555570 0.587938
v 0.500000 -0.707107 0.500000
v 0.392848 -0.831470 0.392848
v 0.270598 -0.923880 0.270598
v 0.137950 -0.980785 0.137950
v 0.074658 0.980785 0.180240
v 0.146447 0.923880 0.353554
v 0.212608 0.831470 0.513280
v 0.270598 0.707107 0.653282
v 0.318190 0.555570 0.768178
v 0.353553 0.382683 0.853554
v 0.375330 0.195090 0.906127
v 0.382683 0.000000 0.923880
v 0.375330 -0.195090 0.906127
v 0.353553 -0.382683 0.853554
v 0.318190 -0.555570 0.768178
v 0.270598 -0.707107 0.653282
v 0.212608 -0.831470 0.513280
v 0.146447 -0.923880 0.353554
v 0.074658 -0.980785 0.180240
v 0.000000 0.980785 0.195091
v 0.000000 0.923880 0.382684
v 0.000000 0.831470 0.555570
v 0.000000 0.707107 0.707107
v -0.000000 0.555570 0.831470
v -0.000000 0.382683 0.923880
v 0.000000 0.195090 0.980785
v -0.000000 0.000000 1.000000
v 0.000000 -0.195090 0.980785
v -0.000000 -0.382683 0.923880
v -0.000000 -0.555570 0.831470
v 0.000000 -0.707107 0.707107
v 0.000000 -0.831470 0.555570
v 0.000000 -0.923880 0.382684
v 0.000000 -0.980785 0.195090
v 0.000000 1.000000 0.000000
v -0.074658 0.980785 0.180240
v -0.146446 0.923880 0.353554
v -0.212608 0.831470 0.513280
v -0.270598 0.707107 0.653281
v -0.318190 0.555570 0.768178
v -0.353553 0.382683 0.853553
v -0.375330 0.195090 0.906127
v -0.382684 0.000000 0.923880
v -0.375330 -0.195090 0.906127
v -0.353553 -0.382683 0.853553
v -0.318190 -0.555570 0.768178
v -0.270598 -0.707107 0.653281
v -0.212608 -0.831470 0.513280
v -0.146447 -0.923880 0.353553
v -0.074658 -0.980785 0.180240
v -0.137950 0.980785 0.137950
v -0.270598 0.923880 0.270598
v -0.392847 0.831470 0.392847
v -0.500000 0.707107 0.500000
v -0.587938 0.555570 0.587937
v -0.653282 0.382683 0.653281
v -0.693520 0.195090 0.693520
v -0.707107 0.000000 0.707107
v -0.693520 -0.195090 0.693520
v -0.653282 -0.382683 0.653281
v -0.587938 -0.555570 0.587937
v -0.500000 -0.707107 0.500000
v -0.392847 -0.831470 0.392847
v -0.270598 -0.923880 0.270598
v -0.137949 -0.980785 0.137950
v -0.180240 0.980785 0.074658
v -0.353553 0.923880 0.146447
v -0.513280 0.831470 0.212607
v -0.653281 0.707107 0.270598
v -0.768178 0.555570 0.318189
v -0.853553 0.382683 0.353553
v -0.906127 0.195090 0.375330
v -0.923880 0.000000 0.382683
v -0.906127 -0.195090 0.375330
v -0.853553 -0.382683 0.353553
v -0.768178 -0.555570 0.318189
v -0.653281 -0.707107 0.270598
v -0.513280 -0.831470 0.212607
v -0.353553 -0.923880 0.146446
v -0.180240 -0.980785 0.074658
vn -0.629400 -0.766900 -0.125200
vn -0.868700 0.464300 -0.172800
vn -0.469300 -0.878100 -0.093400
vn -0.940100 0.285200 -0.187000
vn -0.289800 -0.955300 -0.057600
vn -0.976200 0.096200 -0.194200
vn -0.976200 -0.096200 -0.194200
vn -0.289800 0.955300 -0.057600
vn -0.940100 -0.285200 -0.187000
vn -0.469300 0.878100 -0.093400
vn -0.868700 -0.464300 -0.172800
vn -0.629400 0.766900 -0.125200
vn -0.764000 -0.627000 -0.152000
vn -0.764000 0.627000 -0.152000
vn -0.647700 -0.627000 -0.432800
vn -0.647700 0.627000 -0.432800
vn -0.533600 -0.766900 -0.356500
vn -0.736400 0.464300 -0.492100
vn -0.397900 -0.878100 -0.265900
vn -0.796900 0.285200 -0.532500
vn -0.245700 -0.955300 -0.164200
vn -0.827600 0.096200 -0.553000
vn -0.827600 -0.096200 -0.553000
vn -0.245700 0.955300 -0.164200
vn -0.796900 -0.285200 -0.532500
vn -0.397900 0.878100 -0.265900
vn -0.736400 -0.464300 -0.492100
vn -0.533600 0.766900 -0.356500
vn -0.553000 -0.096200 -0.827600
vn -0.164200 0.955300 -0.245700
vn -0.532500 -0.285200 -0.796900
vn -0.265900 0.878100 -0.397900
vn -0.492100 -0.464300 -0.736400
vn -0.356500 0.766900 -0.533600
vn -0.432800 -0.627000 -0.647700
vn -0.432800 0.627000 -0.647700
vn -0.356500 -0.766900 -0.533600
vn -0.492100 0.464300 -0.736400
vn -0.265900 -0.878100 -0.397900
vn -0.532500 0.285200 -0.796900
vn -0.164200 -0.955300 -0.245700
vn -0.553000 0.096200 -0.827600
vn -0.152000 0.627000 -0.764000
vn -0.125200 -0.766900 -0.629400
vn -0.172800 0.464300 -0.868700
vn -0.093400 -0.878100 -0.469300
vn -0.187000 0.285200 -0.940100
vn -0.057600 -0.955300 -0.289800
vn -0.194200 0.096200 -0.976200
vn -0.194200 -0.096200 -0.976200
vn -0.057600 0.955300 -0.289800
vn -0.187000 -0.285200 -0.940100
vn -0.093400 0.878100 -0.469300
vn -0.172800 -0.464300 -0.868700
vn -0.125200 0.766900 -0.629400
vn -0.152000 -0.627000 -0.764000
vn 0.194200 -0.096200 -0.976200
vn 0.057600 0.955300 -0.289800
vn 0.187000 -0.285200 -0.940100
vn 0.093400 0.878100 -0.469300
vn 0.172800 -0.464300 -0.868700
vn 0.125200 0.766900 -0.629400
vn 0.152000 -0.627000 -0.764000
vn 0.152000 0.627000 -0.764000
vn 0.125200 -0.766900 -0.629400
vn 0.172800 0.464300 -0.868700
vn 0.093400 -0.878100 -0.469300
vn 0.187000 0.285200 -0.940100
vn 0.057600 -0.955300 -0.289800
vn 0.194200 0.096200 -0.976200
vn 0.356500 -0.766900 -0.533600
vn 0.492100 0.464300 -0.736400
vn 0.265900 -0.878100 -0.397900
vn 0.532500 0.285200 -0.796900
vn 0.164200 -0.955300 -0.245700
vn 0.553000 0.096200 -0.827600
vn 0.553000 -0.096200 -0.827600
vn 0.164200 0.955300 -0.245700
vn 0.532500 -0.285200 -0.796900
vn 0.265900 0.878100 -0.397900
vn 0.492100 -0.464300 -0.736400
vn 0.356500 0.766900 -0.533600
vn 0.432800 -0.627000 -0.647700
vn 0.432800 0.627000 -0.647700
vn 0.796900 -0.285200 -0.532500
vn 0.397900 0.878100 -0.265900
vn 0.736400 -0.464300 -0.492100
vn 0.533600 0.766900 -0.356500
vn 0.647700 -0.627000 -0.432800
vn 0.647700 0.627000 -0.432800
vn 0.533600 -0.766900 -0.356500
vn 0.736400 0.464300 -0.492100
vn 0.397900 -0.878100 -0.265900
vn 0.796900 0.285200 -0.532500
vn 0.245700 -0.955300 -0.164200
vn 0.827600 0.096200 -0.553000
vn 0.827600 -0.096200 -0.553000
vn 0.245700 0.955300 -0.164200
vn 0.469300 -0.878100 -0.093400
vn 0.940100 0.285200 -0.187000
vn 0.289800 -0.955300 -0.057600
vn 0.976200 0.096200 -0.194200
vn 0.976200 -0.096200 -0.194200
vn 0.289800 0.955300 -0.057600
vn 0.940100 -0.285200 -0.187000
vn 0.469300 0.878100 -0.093400
vn 0.868700 -0.464300 -0.172800
vn 0.629400 0.766900 -0.125200
vn 0.764000 -0.627000 -0.152000
vn 0.764000 0.627000 -0.152000
vn 0.629400 -0.766900 -0.125200
vn 0.868700 0.464300 -0.172800
vn 0.469300 0.878100 0.093400
vn 0.868700 -0.464300 0.172800
vn 0.629400 0.766900 0.125200
vn 0.764000 -0.627000 0.152000
vn 0.764000 0.627000 0.152000
vn 0.629400 -0.766900 0.125200
vn 0.868700 0.464300 0.172800
vn 0.469300 -0.878100 0.093400
vn 0.940100 0.285200 0.187000
vn 0.289800 -0.955300 0.057600
vn 0.976200 0.096200 0.194200
vn 0.976200 -0.096200 0.194200
vn 0.289800 0.955300 0.057600
vn 0.940100 -0.285200 0.187000
vn 0.796900 0.285200 0.532500
vn 0.245700 -0.955300 0.164200
vn 0.827600 0.096200 0.553000
vn 0.827600 -0.096200 0.553000
vn 0.245700 0.955300 0.164200
vn 0.796900 -0.285200 0.532500
vn 0.397900 0.878100 0.265900
vn 0.736400 -0.464300 0.492100
vn 0.533600 0.766900 0.356500
vn 0.647700 -0.627000 0.432800
vn 0.647700 0.627000 0.432800
vn 0.533600 -0.766900 0.356500
vn 0.736400 0.464300 0.492100
vn 0.397900 -0.878100 0.265900
vn 0.492100 -0.464300 0.736400
vn 0.356500 0.766900 0.533600
vn 0.432800 -0.627000 0.647700
vn 0.432800 0.627000 0.647700
vn 0.356500 -0.766900 0.533600
vn 0.492100 0.464300 0.736400
vn 0.265900 -0.878100 0.397900
vn 0.532500 0.285200 0.796900
vn 0.164200 -0.955300 0.245700
vn 0.553000 0.096200 0.827600
vn 0.553000 -0.096200 0.827600
vn 0.164200 0.955300 0.245700
vn 0.532500 -0.285200 0.796900
vn 0.265900 0.878100 0.397900
vn 0.057600 -0.955300 0.289800
vn 0.194200 0.096200 0.976200
vn 0.194200 -0.096200 0.976200
vn 0.057600 0.955300 0.289800
vn 0.187000 -0.285200 0.940100
vn 0.093400 0.878100 0.469300
vn 0.172800 -0.464300 0.868700
vn 0.125200 0.766900 0.629400
vn 0.152000 -0.627000 0.764000
vn 0.152000 0.627000 0.764000
vn 0.125200 -0.766900 0.629400
vn 0.172800 0.464300 0.868700
vn 0.093400 -0.878100 0.469300
vn 0.187000 0.285200 0.940100
vn -0.125200 0.766900 0.629400
vn -0.152000 -0.627000 0.764000
vn -0.152000 0.627000 0.764000
vn -0.125200 -0.766900 0.629400
vn -0.172800 0.464300 0.868700
vn -0.093400 -0.878100 0.469300
vn -0.187000 0.285200 0.940100
vn -0.057600 -0.955300 0.289800
vn -0.194200 0.096200 0.976200
vn -0.194200 -0.096200 0.976200
vn -0.057600 0.955300 0.289800
vn -0.187000 -0.285200 0.940100
vn -0.093400 0.878100 0.469300
vn -0.172800 -0.464300 0.868700
vn -0.553000 0.096200 0.827600
vn -0.553000 -0.096200 0.827600
vn -0.164200 0.955300 0.245700
vn -0.532500 -0.285200 0.796900
vn -0.265900 0.878100 0.397900
vn -0.492100 -0.464300 0.736400
vn -0.356500 0.766900 0.533600
vn -0.432800 -0.627000 0.647700
vn -0.432800 0.627000 0.647700
vn -0.356500 -0.766900 0.533600
vn -0.492100 0.464300 0.736400
vn -0.265900 -0.878100 0.397900
vn -0.532500 0.285200 0.796900
vn -0.164200 -0.955300 0.245700
vn -0.647700 -0.627000 0.432800
vn -0.647700 0.627000 0.432800
vn -0.533600 -0.766900 0.356500
vn -0.736400 0.464300 0.492100
vn -0.397900 -0.878100 0.265900
vn -0.796900 0.285200 0.532500
vn -0.245700 -0.955300 0.164200
vn -0.827600 0.096200 0.553000
vn -0.827600 -0.096200 0.553000
vn -0.245700 0.955300 0.164200
vn -0.796900 -0.285200 0.532500
vn -0.397900 0.878100 0.265900
vn -0.736400 -0.464300 0.492100
vn -0.533600 0.766900 0.356500
vn -0.098000 0.995000 -0.019500
vn -0.098000 -0.995000 -0.019500
vn -0.083100 0.995000 -0.055500
vn -0.083100 -0.995000 -0.055500
vn -0.055500 0.995000 -0.083100
vn -0.055500 -0.995000 -0.083100
vn -0.019500 0.995000 -0.098000
vn -0.019500 -0.995000 -0.098000
vn 0.019500 0.995000 -0.098000
vn 0.019500 -0.995000 -0.098000
vn 0.055500 0.995000 -0.083100
vn 0.055500 -0.995000 -0.083100
vn 0.083100 0.995000 -0.055500
vn 0.083100 -0.995000 -0.055500
vn 0.098000 0.995000 -0.019500
vn 0.098000 -0.995000 -0.019500
vn 0.098000 0.995000 0.019500
vn 0.098000 -0.995000 0.019500
vn 0.083100 0.995000 0.055500
vn 0.083100 -0.995000 0.055500
vn 0.055500 0.995000 0.083100
vn 0.055500 -0.995000 0.083100
vn 0.019500 0.995000 0.098000
vn 0.019500 -0.995000 0.098000
vn -0.019500 0.995000 0.098000
vn -0.019500 -0.995000 0.098000
vn -0.055500 0.995000 0.083100
vn -0.055500 -0.995000 0.083100
vn -0.083100 0.995000 0.055500
vn -0.083100 -0.995000 0.055500
vn -0.098000 -0.995000 0.019500
vn -0.976200 -0.096200 0.194200
vn -0.289800 0.955300 0.057600
vn -0.940100 -0.285200 0.187000
vn -0.469300 0.878100 0.093400
vn -0.868700 -0.464300 0.172800
vn -0.629400 0.766900 0.125200
vn -0.764000 -0.627000 0.152000
vn -0.764000 0.627000 0.152000
vn -0.629400 -0.766900 0.125200
vn -0.868700 0.464300 0.172800
vn -0.469300 -0.878100 0.093400
vn -0.940100 0.285200 0.187000
vn -0.289800 -0.955300 0.057600
vn -0.976200 0.096200 0.194200
vn -0.098000 0.995000 0.019500
usemtl None
s off
f 13//1 12//1 27//1 28//1
f 6//2 5//2 20//2 21//2
f 14//3 13//3 28//3 29//3
f 7//4 6//4 21//4 22//4
f 15//5 14//5 29//5 30//5
f 8//6 7//6 22//6 23//6
f 9//7 8//7 23//7 24//7
f 2//8 1//8 16//8 17//8
f 10//9 9//9 24//9 25//9
f 3//10 2//10 17//10 18//10
f 11//11 10//11 25//11 26//11
f 4//12 3//12 18//12 19//12
f 12//13 11//13 26//13 27//13
f 5//14 4//14 19//14 20//14
f 27//15 26//15 42//15 43//15
f 20//16 19//16 35//16 36//16
f 28//17 27//17 43//17 44//17
f 21//18 20//18 36//18 37//18
f 29//19 28//19 44//19 45//19
f 22//20 21//20 37//20 38//20
f 30//21 29//21 45//21 46//21
f 23//22 22//22 38//22 39//22
f 24//23 23//23 39//23 40//23
f 17//24 16//24 32//24 33//24
f 25//25 24//25 40//25 41//25
f 18//26 17//26 33//26 34//26
f 26//27 25//27 41//27 42//27
f 19//28 18//28 34//28 35//28
f 40//29 39//29 54//29 55//29
f 33//30 32//30 47//30 48//30
f 41//31 40//31 55//31 56//31
f 34//32 33//32 48//32 49//32
f 42//33 41//33 56//33 57//33
f 35//34 34//34 49//34 50//34
f 43//35 42//35 57//35 58//35
f 36//36 35//36 50//36 51//36
f 44//37 43//37 58//37 59//37
f 37//38 36//38 51//38 52//38
f 45//39 44//39 59//39 60//39
f 38//40 37//40 52//40 53//40
f 46//41 45//41 60//41 61//41
f 39//42 38//42 53//42 54//42
f 51//43 50//43 65//43 66//43
f 59//44 58//44 73//44 74//44
f 52//45 51//45 66//45 67//45
f 60//46 59//46 74//46 75//46
f 53//47 52//47 67//47 68//47
f 61//48 60//48 75//48 76//48
f 54//49 53//49 68//49 69//49
f 55//50 54//50 69//50 70//50
f 48//51 47//51 62//51 63//51
f 56//52 55//52 70//52 71//52
f 49//53 48//53 63//53 64//53
f 57//54 56//54 71//54 72//54
f 50//55 49//55 64//55 65//55
f 58//56 57//56 72//56 73//56
f 70//57 69//57 84//57 85//57
f 63//58 62//58 77//58 78//58
f 71//59 70//59 85//59 86//59
f 64//60 63//60 78//60 79//60
f 72//61 71//61 86//61 87//61
f 65//62 64//62 79//62 80//62
f 73//63 72//63 87//63 88//63
f 66//64 65//64 80//64 81//64
f 74//65 73//65 88//65 89//65
f 67//66 66//66 81//66 82//66
f 75//67 74//67 89//67 90//67
f 68//68 67//68 82//68 83//68
f 76//69 75//69 90//69 91//69
f 69//70 68//70 83//70 84//70
f 89//71 88//71 103//71 104//71
f 82//72 81//72 96//72 97//72
f 90//73 89//73 104//73 105//73
f 83//74 82//74 97//74 98//74
f 91//75 90//75 105//75 106//75
f 84//76 83//76 98//76 99//76
f 85//77 84//77 99//77 100//77
f 78//78 77//78 92//78 93//78
f 86//79 85//79 100//79 101//79
f 79//80 78//80 93//80 94//80
f 87//81 86//81 101//81 102//81
f 80//82 79//82 94//82 95//82
f 88//83 87//83 102//83 103//83
f 81//84 80//84 95//84 96//84
f 101//85 100//85 115//85 116//85
f 94//86 93//86 108//86 109//86
f 102//87 101//87 116//87 117//87
f 95//88 94//88 109//88 110//88
f 103//89 102//89 117//89 118//89
f 96//90 95//90 110//90 111//90
f 104//91 103//91 118//91 119//91
f 97//92 96//92 111//92 112//92
f 105//93 104//93 119//93 120//93
f 98//94 97//94 112//94 113//94
f 106//95 105//95 120//95 121//95
f 99//96 98//96 113//96 114//96
f 100//97 99//97 114//97 115//97
f 93//98 92//98 107//98 108//98
f 120//99 119//99 134//99 135//99
f 113//100 112//100 127//100 128//100
f 121//101 120//101 135//101 136//101
f 114//102 113//102 128//102 129//102
f 115//103 114//103 129//103 130//103
f 108//104 107//104 122//104 123//104
f 116//105 115//105 130//105 131//105
f 109//106 108//106 123//106 124//106
f 117//107 116//107 131//107 132//107
f 110//108 109//108 124//108 125//108
f 118//109 117//109 132//109 133//109
f 111//110 110//110 125//110 126//110
f 119//111 118//111 133//111 134//111
f 112//112 111//112 126//112 127//112
f 124//113 123//113 138//113 139//113
f 132//114 131//114 146//114 147//114
f 125//115 124//115 139//115 140//115
f 133//116 132//116 147//116 148//116
f 126//117 125//117 140//117 141//117
f 134//118 133//118 148//118 149//118
f 127//119 126//119 141//119 142//119
f 135//120 134//120 149//120 150//120
f 128//121 127//121 142//121 143//121
f 136//122 135//122 150//122 151//122
f 129//123 128//123 143//123 144//123
f 130//124 129//124 144//124 145//124
f 123//125 122//125 137//125 138//125
f 131//126 130//126 145//126 146//126
f 143//127 142//127 157//127 158//127
f 151//128 150//128 165//128 166//128
f 144//129 143//129 158//129 159//129
f 145//130 144//130 159//130 160//130
f 138//131 137//131 152//131 153//131
f 146//132 145//132 160//132 161//132
f 139//133 138//133 153//133 154//133
f 147//134 146//134 161//134 162//134
f 140//135 139//135 154//135 155//135
f 148//136 147//136 162//136 163//136
f 141//137 140//137 155//137 156//137
f 149//138 148//138 163//138 164//138
f 142//139 141//139 156//139 157//139
f 150//140 149//140 164//140 165//140
f 162//141 161//141 176//141 177//141
f 155//142 154//142 169//142 170//142
f 163//143 162//143 177//143 178//143
f 156//144 155//144 170//144 171//144
f 164//145 163//145 178//145 179//145
f 157//146 156//146 171//146 172//146
f 165//147 164//147 179//147 180//147
f 158//148 157//148 172//148 173//148
f 166//149 165//149 180//149 181//149
f 159//150 158//150 173//150 174//150
f 160//151 159//151 174//151 175//151
f 153//152 152//152 167//152 168//152
f 161//153 160//153 175//153 176//153
f 154//154 153//154 168//154 169//154
f 181//155 180//155 195//155 196//155
f 174//156 173//156 188//156 189//156
f 175//157 174//157 189//157 190//157
f 168//158 167//158 182//158 183//158
f 176//159 175//159 190//159 191//159
f 169//160 168//160 183//160 184//160
f 177//161 176//161 191//161 192//161
f 170//162 169//162 184//162 185//162
f 178//163 177//163 192//163 193//163
f 171//164 170//164 185//164 186//164
f 179//165 178//165 193//165 194//165
f 172//166 171//166 186//166 187//166
f 180//167 179//167 194//167 195//167
f 173//168 172//168 187//168 188//168
f 185//169 184//169 200//169 201//169
f 193//170 192//170 208//170 209//170
f 186//171 185//171 201//171 202//171
f 194//172 193//172 209//172 210//172
f 187//173 186//173 202//173 203//173
f 195//174 194//174 210//174 211//174
f 188//175 187//175 203//175 204//175
f 196//176 195//176 211//176 212//176
f 189//177 188//177 204//177 205//177
f 190//178 189//178 205//178 206//178
f 183//179 182//179 198//179 199//179
f 191//180 190//180 206//180 207//180
f 184//181 183//181 199//181 200//181
f 192//182 191//182 207//182 208//182
f 205//183 204//183 219//183 220//183
f 206//184 205//184 220//184 221//184
f 199//185 198//185 213//185 214//185
f 207//186 206//186 221//186 222//186
f 200//187 199//187 214//187 215//187
f 208//188 207//188 222//188 223//188
f 201//189 200//189 215//189 216//189
f 209//190 208//190 223//190 224//190
f 202//191 201//191 216//191 217//191
f 210//192 209//192 224//192 225//192
f 203//193 202//193 217//193 218//193
f 211//194 210//194 225//194 226//194
f 204//195 203//195 218//195 219//195
f 212//196 211//196 226//196 227//196
f 224//197 223//197 238//197 239//197
f 217//198 216//198 231//198 232//198
f 225//199 224//199 239//199 240//199
f 218//200 217//200 232//200 233//200
f 226//201 225//201 240//201 241//201
f 219//202 218//202 233//202 234//202
f 227//203 226//203 241//203 242//203
f 220//204 219//204 234//204 235//204
f 221//205 220//205 235//205 236//205
f 214//206 213//206 228//206 229//206
f 222//207 221//207 236//207 237//207
f 215//208 214//208 229//208 230//208
f 223//209 222//209 237//209 238//209
f 216//210 215//210 230//210 231//210
f 1//211 197//211 16//211
f 31//212 15//212 30//212
f 16//213 197//213 32//213
f 31//214 30//214 46//214
f 32//215 197//215 47//215
f 31//216 46//216 61//216
f 47//217 197//217 62//217
f 31//218 61//218 76//218
f 62//219 197//219 77//219
f 31//220 76//220 91//220
f 77//221 197//221 92//221
f 31//222 91//222 106//222
f 92//223 197//223 107//223
f 31//224 106//224 121//224
f 107//225 197//225 122//225
f 31//226 121//226 136//226
f 122//227 197//227 137//227
f 31//228 136//228 151//228
f 137//229 197//229 152//229
f 31//230 151//230 166//230
f 152//231 197//231 167//231
f 31//232 166//232 181//232
f 167//233 197//233 182//233
f 31//234 181//234 196//234
f 182//235 197//235 198//235
f 31//236 196//236 212//236
f 198//237 197//237 213//237
f 31//238 212//238 227//238
f 213//239 197//239 228//239
f 31//240 227//240 242//240
f 31//241 242//241 15//241
f 236//242 235//242 8//242 9//242
f 229//243 228//243 1//243 2//243
f 237//244 236//244 9//244 10//244
f 230//245 229//245 2//245 3//245
f 238//246 237//246 10//246 11//246
f 231//247 230//247 3//247 4//247
f 239//248 238//248 11//248 12//248
f 232//249 231//249 4//249 5//249
f 240//250 239//250 12//250 13//250
f 233//251 232//251 5//251 6//251
f 241//252 240//252 13//252 14//252
f 234//253 233//253 6//253 7//253
f 242//254 241//254 14//254 15//254
f 235//255 234//255 7//255 8//255
f 228//256 197//256 1//256
